<!--?xml version="1.0" encoding="utf-8"?-->
<!-- Generator: Adobe Illustrator 19.1.1, SVG Export Plug-In . SVG Version: 6.00 Build 0)  -->
<svg version="1.1" id="_x31_0" xmlns="http://www.w3.org/2000/svg" xmlns:xlink="http://www.w3.org/1999/xlink" x="0px" y="0px" viewBox="0 0 512 512" style="width: 256px; height: 256px; opacity: 1;" xml:space="preserve">
<style type="text/css">
	.st0{fill:#374149;}
</style>
<g>
	<path class="st0" d="M373.234,128.351c-0.683-1.238-2.398-1.238-3.082,0l-5.821,10.535c-0.683,1.238,0.172,2.79,1.543,2.79h11.641
		c1.367,0,2.226-1.551,1.539-2.79L373.234,128.351z" style="fill: rgb(75, 75, 75);"></path>
	<path class="st0" d="M390.211,141.676h11.641c1.367,0,2.226-1.551,1.539-2.79l-5.821-10.535c-0.683-1.238-2.394-1.238-3.082,0
		l-5.821,10.535C387.984,140.125,388.84,141.676,390.211,141.676z" style="fill: rgb(75, 75, 75);"></path>
	<path class="st0" d="M371.304,52.602c-3.488,0-6.946,0.215-10.312,0.641c-5.234-25.426-17.993-43.02-36.63-50.059
		C318.761,1.07,312.918,0,306.984,0c-32.286,0-57.008,31.027-74.422,55.66h-13.218C201.902,31,177.176,0,144.926,0
		c-5.938,0-11.782,1.07-17.383,3.183c-21.203,8.016-34.851,29.711-38.371,61.11C87,83.66,88.926,105.875,94.219,124.234
		c-5.719,20.75-15.79,73.195,13.281,114.172c0.184,0.274,0.398,0.55,0.582,0.797c-14.719,15.785-30.57,39.902-30.57,70.562
		c0,12.207,0.614,21.879,1.867,29.586c-4.926,7.102-8.902,17.11-10.465,31.126c-2.906,26.496,4.191,70.102,27.019,92.441
		c5.539,25.43,27.57,44.798,54.59,46.145c1.777,0.062,3.55,0.121,5.297,0.121c6.82,0,13.218-0.644,19.031-1.926
		c3.394,1.055,7.129,1.906,11.042,2.672c1.497,0.336,2.93,0.676,4.516,1.016c-0.114-0.062-0.203-0.153-0.317-0.215
		c0.137,0.023,0.258,0.054,0.395,0.074c-7.282-4.039-13.618-9.238-18.79-15.422c-1.957-2.294-3.73-4.711-5.324-7.25
		c-0.824-1.254-1.558-2.57-2.266-3.886c-1.742-3.153-3.18-6.458-4.375-9.887c-0.152,0.125-0.274,0.278-0.367,0.461l-1.664,2.887
		l-4.449,6.93c-0.504,0.004-1.012,0-1.504-0.023c-2.266-0.126-4.469-0.462-6.61-0.981h-0.031l-5.082-8.813
		c-0.702-1.254-2.507-1.254-3.21,0l-2.286,3.977l-0.074,0.121c-9.27-6.152-15.36-16.644-15.391-28.484v-0.492
		c-17.125-9.293-27.386-44.394-26.203-71.242c0.184-3.434,0.531-6.758,1.094-9.879c5.07,4.086,11.714,8.778,20.246,13.711
		c3.489,2.019,6.852,4.191,10.066,6.578c7.215,5.254,13.618,11.422,19.184,18.164c0.398,0.508,0.836,0.988,1.218,1.5
		c0.004-0.047,0.016-0.094,0.02-0.141c0.042,0.054,0.098,0.098,0.14,0.152c0.29-4.195,1.074-8.301,2.129-12.304
		c0.203-0.696,0.317-1.383,0.551-2.074l2.738,1.832l0.062,0.062h0.027l1.531,1.012c0.766,0.519,1.558,0.976,2.355,1.406
		c2.266,1.223,4.715,2.051,7.223,2.508c-0.614,2.539-1.039,5.11-1.254,7.742c-0.55,6.152,0,12.515,1.836,18.789L165,437.977
		l2.875,9.886l1.317,4.59l1.347,4.59l1.375,4.805l1.438,4.894c1.805,6.274,4.774,12.054,8.66,17.074
		c4.285,5.538,9.699,10.222,16.066,13.71c1.68,0.946,3.426,1.774,5.203,2.477h0.058l0.031,0.031
		c1.398,0.582,2.852,0.922,4.282,1.375c0.281,0.09,0.558,0.183,0.84,0.27c4.726,1.414,9.554,2.133,14.445,2.137
		c0.008,0,0.016,0.003,0.023,0.003c0.016,0,0.032-0.003,0.043-0.003c4.77-0.004,9.558-0.52,14.27-1.883
		c1.348-0.398,2.45-0.828,3.734-1.348h0.215c5.05-1.898,9.762-4.558,13.894-7.894c0.898-0.73,1.644-1.641,2.496-2.43
		c0.617-0.57,1.211-1.148,1.785-1.738c0.79-0.805,1.692-1.488,2.418-2.351c2.386-2.722,4.469-5.719,6.242-8.965
		c3.183-5.786,5.202-11.996,6.027-18.328v-0.031c0.094-0.614,0.156-1.196,0.183-1.805c0.094-0.676,0.153-1.379,0.184-2.082v-0.031
		c0.031-0.828,0.062-1.652,0.062-2.477c0-0.398,0-0.766-0.031-1.164v-0.031c0-1.133-0.062-2.266-0.153-3.394
		c-0.305-3.305-0.918-6.641-1.867-9.886l-2.785-9.547v-0.031l-8.504-29.406c-3.828-13.156-12.547-24.05-24.606-30.722
		c-0.031-0.027-0.09-0.027-0.121-0.058c-7.774-4.286-16.309-6.458-24.91-6.458c-2.191,0-4.382,0.238-6.578,0.524
		c-0.507,0.039-0.976,0.039-1.492,0.082c0.058-0.328,0.118-0.679,0.176-1.035c1.625-0.949,3.121-2.05,4.531-3.367
		c1.254-1.129,2.386-2.445,3.363-3.855c0.156-0.18,0.309-0.394,0.43-0.578c1.164-1.714,2.082-3.488,2.754-5.355
		c3.824,1.16,7.863,1.774,12.058,1.774c1.679,0,3.363-0.09,5.015-0.305c20.719-2.481,36.813-20.137,36.813-41.527
		c0-1.406-0.062-2.813-0.215-4.188c-0.273-2.828-0.851-5.566-1.668-8.179c-0.003-0.02-0.003-0.035-0.007-0.055
		c0.578-0.094,1.125-0.183,1.675-0.304c1.102-0.246,2.203-0.493,3.305-0.734c4.469-1.008,8.813-2.203,12.977-3.489l1.836-0.55
		c2.969-0.95,5.844-1.989,8.598-3.031c2.848-1.102,5.57-2.262,8.141-3.458h0.031c0.274-0.121,0.55-0.273,0.824-0.398
		c0.246-0.121,0.488-0.214,0.734-0.336c0.488-0.214,0.95-0.457,1.41-0.671v-0.024c0.707-0.347,1.449-0.675,2.137-1.035
		c0.011-0.004,0.023-0.007,0.035-0.015c0.183-0.122,0.367-0.184,0.55-0.274c0.488-0.246,0.977-0.519,1.438-0.766
		c0.426-0.242,0.855-0.457,1.285-0.703c0.031-0.015,0.063-0.035,0.094-0.054c0.679-0.375,1.324-0.754,1.976-1.133
		c0.325-0.188,0.672-0.375,0.989-0.559c0.062-0.027,0.094-0.058,0.152-0.09c0.367-0.214,0.707-0.43,1.051-0.641
		c0.148-0.094,0.301-0.183,0.449-0.273c0.488-0.298,0.996-0.598,1.469-0.891c0.215-0.125,0.398-0.277,0.614-0.398
		c0.214-0.152,0.398-0.277,0.613-0.398c0.551-0.336,1.07-0.703,1.558-1.039c0.309-0.214,0.645-0.43,0.95-0.644
		c0.672-0.489,1.317-0.95,1.957-1.438c0.489-0.348,0.954-0.707,1.418-1.066c0.144-0.118,0.316-0.23,0.461-0.344
		c0.187-0.148,0.402-0.301,0.586-0.446c0.004-0.003,0.012-0.007,0.012-0.007c0.141-0.118,0.278-0.223,0.414-0.325l0.25-0.09
		c-0.18,1.446-0.39,2.855-0.629,4.266c-1.836,10.957-5.051,21.118-9.488,30.324c-0.641,1.379-1.317,2.727-2.082,4.07
		c-0.672,1.317-1.375,2.602-2.172,3.856c-4.496,7.648-9.945,14.504-16.187,20.472c-0.184,0.184-0.367,0.336-0.551,0.52
		c-12.226,11.469-27.542,19.43-45.011,23.274c-0.762,0.156-1.504,0.351-2.27,0.492c0.039,0.023,0.074,0.054,0.113,0.082
		c-0.066,0.012-0.129,0.039-0.199,0.051c3.305,2.114,6.363,4.531,9.18,7.16c15.363-4.16,29.102-11.535,40.668-21.449
		c1.222-1.07,2.449-2.141,3.61-3.242c4.988-4.746,9.546-9.946,13.558-15.61c0.09-0.121,0.183-0.211,0.242-0.336
		c0.734-1.008,1.438-2.046,2.144-3.121l0.027,0.152c0.032-0.031,0.094-0.09,0.126-0.152l0.058-0.336c0,0,0,0,0-0.031
		c0.43-0.614,0.828-1.222,1.195-1.863c0.305-0.43,0.582-0.89,0.824-1.352c0.309-0.484,0.614-1.007,0.891-1.527h0.027
		c5.57-9.61,9.855-20.258,12.61-31.793c0.136-0.594,0.273-1.184,0.41-1.778l0.203-0.511c5.942,9.507,11.394,18.25,14.625,23.37
		c0.645,1.07,1.192,1.958,1.684,2.665c0.797,1.316,1.254,2.05,1.254,2.05v0.762c-0.031,10.496-0.55,17.934-1.285,23.226
		c-0.551,3.981-1.222,6.703-1.867,8.63c-1.469,4.195-2.938,4.316-3.09,4.316c0.453,0.184,0.898,0.461,1.332,0.746
		c0.062,0.054,0.113,0.066,0.171,0.129c-0.538,0.484-1.113,0.965-1.718,1.48c-4.191,3.458-10.066,7.711-17.992,12.27
		c-19.797,11.446-36.11,27.481-47.461,46.422v0.031l4.867,16.89v0.027l2.629,9.031c0.461,1.527,0.828,3.027,1.195,4.558
		c0.418,2.012,0.687,4.008,0.934,6.012c0.015,0.477,0.09,0.954,0.078,1.43l0.098-0.281c0.011,0.113,0.042,0.222,0.05,0.336
		c0.676-1.898,1.379-3.887,2.082-5.938c1.254-3.672,2.722-7.219,4.347-10.711l0.027-0.031c7.469-15.726,18.91-29.465,33.356-40.023
		c0,0,0.031,0,0.031-0.031c3.179-2.325,6.515-4.497,10.004-6.516c6.633-3.82,12.098-7.519,16.59-10.902
		c0.438-0.312,0.918-0.617,1.351-0.93c1.219,6.473,1.86,13.785,1.86,21.226c0,21.786-5.477,44.981-18.637,53.887
		c0,13.863-10.294,27.609-21.77,34.258c-0.153,0.086-0.297,0.199-0.45,0.281l-3.21-5.531c-0.734-1.254-2.508-1.254-3.211,0
		l-5.45,9.395c-2.722,0.304-5.476,0.457-8.199,0.488l-5.722-9.883c-0.703-1.254-2.477-1.254-3.211,0l-4.957,8.598
		c-0.676-0.152-1.347-0.304-1.988-0.488c-0.309,0.551-0.582,1.102-0.891,1.653c-2.262,4.133-4.926,7.957-7.926,11.445h-0.027
		c-5.633,6.637-12.515,12.055-20.289,15.973c9.882-0.918,18.266-2.481,25.519-4.742c5.817,1.282,12.18,1.926,19.035,1.926
		c4.098,0,8.32-0.242,12.516-0.734c24.691-2.848,47.519-25.458,53.304-50.551c17.688-19.676,21.879-52.813,19.43-79.742
		c-1.07-11.445-3.61-24.789-9.395-35.648c1.07-5.328,1.774-11.723,2.141-19.371c39.504-24.45,39.902-85.957,40.118-120.41
		c0.031-5.539,0.062-10.312,0.246-13.465c0.398-6.703,2.141-15.238,5.02-24.906c14.289-12.121,22.55-29.102,22.55-46.972
		C443.703,81.672,411.238,52.602,371.304,52.602z M375.625,283.344c-0.234,0.441-0.516,0.836-0.762,1.266
		c-1.59,2.758-3.343,5.347-5.336,7.664c-9.238-14.742-21.214-33.902-29.773-47.809c1.621-1.961,3.183-3.981,4.652-6.058
		c29.039-40.977,19.004-93.422,13.282-114.172c3.855-13.34,5.938-28.699,5.938-43.543c2.507-0.367,5.046-0.55,7.679-0.55
		c24.722,0,44.859,16.707,44.859,37.242c0,11.625-6.398,22.367-17.594,29.496l-0.922,0.582l-0.336,1.012
		c-5.078,15.117-8.016,28.242-8.66,39.106c-0.242,3.918-0.274,9.027-0.305,14.961c-0.16,22.11-0.371,57.711-12.66,80.683
		C375.664,283.262,375.648,283.305,375.625,283.344z M198.609,460.282l10.238-3.238l12.762-4.039l-0.183-0.551l-1.438-4.59
		l-1.133-3.613l-11.414,3.613l-11.332,3.574l-0.114,0.031l-1.038-3.606L190,430.848l21.555-6.813l0.171-0.054l0,0l0.153-0.047
		l-2.786-8.754l-21.066,6.668l-0.601,0.183L187,420.508c-3.918-13.558,3.918-27.786,17.473-31.734
		c2.293-0.641,4.653-1.008,7.008-1.008c11.382,0,21.543,7.618,24.695,18.481l11.32,38.984c0.246,0.886,0.458,1.746,0.582,2.633
		c0.305,1.527,0.43,3.058,0.43,4.59c0,1.559-0.156,3.09-0.461,4.59c-1.684,9.179-8.383,17.137-17.992,19.918
		c-2.329,0.645-4.684,0.981-7.039,0.981c-10.778,0-20.379-6.828-24.047-16.766C198.859,460.875,198.707,460.594,198.609,460.282z
		 M203.371,307.317c0.305-9.18,5.875-17.043,13.832-20.594c2.906-1.316,6.149-2.05,9.578-2.05c3.394,0,6.61,0.703,9.515,2.019
		c7.985,3.52,13.618,11.383,13.922,20.626c0.031,0.246,0.031,0.519,0.031,0.793c0,12.976-10.496,23.473-23.469,23.473
		c-5.02,0-9.672-1.59-13.465-4.254c-3.122-2.203-5.66-5.11-7.406-8.539c-1.652-3.21-2.57-6.82-2.57-10.679
		C203.34,307.836,203.34,307.562,203.371,307.317z M176.035,367.566c-0.48-0.125-0.965-0.25-1.43-0.457
		c-0.61-0.215-1.222-0.551-1.805-0.95l-1.07,1.653c0.367,0.246,0.703,0.519,1.039,0.797c2.145,1.894,3.336,4.527,3.398,7.25
		c0.09,2.082-0.461,4.16-1.683,6c-1.622,2.414-4.102,3.914-6.73,4.344c-0.551,0.094-1.133,0.152-1.684,0.152
		c-1.961,0-3.918-0.582-5.66-1.746l-0.398-0.274l-4.746-3.184l-1.621-1.102l-8.414-5.66l-0.121-0.09l-0.062-0.031l-25.062-16.89
		l-0.184-0.126l-3.488-2.355c-0.855-0.582-1.68-1.164-2.477-1.774c-2.418-1.867-4.621-3.886-6.61-6.058
		c-15.484-16.863-17.992-42.687-4.652-62.516l2.172-3.246c1.442-2.141,3.582-3.578,5.906-4.16c0.828-0.215,1.652-0.336,2.511-0.336
		c1.958,0,3.914,0.582,5.661,1.746l0.214,0.149l11.074,7.469l22.309,15.023l36.507,24.602l2.446,1.656l5.172,3.458
		c3.336,2.262,4.926,6.21,4.316,9.973c-0.214,1.437-0.734,2.816-1.594,4.101c-1.102,1.653-2.629,2.875-4.312,3.614
		c-0.676,0.153-1.317,0.336-1.989,0.519c-0.277,0.09-0.582,0.18-0.859,0.274c-0.031,0-0.031,0-0.031,0
		c-0.398,0.031-0.793,0.062-1.191,0.062c-1.958,0-3.918-0.55-5.661-1.714l-1.007,1.484l-0.008,0.004l0.004,0.004l-0.09,0.129
		c0.57,0.391,1.015,0.891,1.484,1.367c0.137,0.242,0.324,0.469,0.351,0.75c0.039,0.019,0.094,0.042,0.13,0.058
		c-0.063,0.031-0.13,0.05-0.192,0.09c0.274,0.122,0.582,0.246,0.887,0.336v0.031c1.41,1.989,2.019,4.438,1.746,6.825
		c-0.094,1.07-0.367,2.144-0.859,3.152c-0.211,0.519-0.488,1.008-0.793,1.469c-1.961,2.906-5.141,4.465-8.418,4.465
		c-0.492,0-0.984-0.07-1.476-0.145C176.66,367.711,176.348,367.645,176.035,367.566z M190.887,295.187
		c-0.993,3.157-1.688,6.458-2.02,9.836c-0.027,0.286-0.046,0.543-0.054,0.801c-0.023,0.066-0.023,0.126-0.058,0.199l-2.383-1.625
		l-0.035-0.039l-26.477-17.809l-0.023-0.023c2.367,0.871,4.774,1.723,7.258,2.52l2.203,0.664c4.993,1.542,10.207,2.976,15.57,4.183
		c1.321,0.297,2.641,0.59,3.965,0.883c0.559,0.125,1.126,0.214,1.703,0.308C190.66,295.129,190.75,295.133,190.887,295.187z
		 M133.937,232.164c-2.844-3.031-5.382-6.211-7.617-9.515c-24.45-36.602-10.559-86.938-6.458-98.626
		c-11.718-31.64-10.71-87.73,16.34-97.922c2.906-1.102,5.817-1.621,8.723-1.621c23.988,0,47.094,34.73,61.66,55.66
		c0,0,8.656,0,19.367,0c10.71,0,19.371,0,19.371,0c14.566-20.93,37.636-55.66,61.66-55.66c2.906,0,5.812,0.519,8.718,1.621
		c11.902,4.469,18.758,17.809,21.726,34.058c1.348,7.438,1.867,15.512,1.715,23.594c-0.031,1.286-0.062,2.539-0.156,3.825
		c-0.059,1.406-0.153,2.812-0.274,4.222c-0.887,11.656-3.242,22.981-6.672,32.222c1.102,3.149,2.938,9.118,4.531,16.891
		c0.305,1.59,0.641,3.242,0.946,4.988c0.277,1.714,0.55,3.519,0.797,5.355c0.305,2.047,0.55,4.129,0.734,6.301
		c1.836,19.555,0.246,43.79-12.79,64.047c-2.355,3.641-5.082,7.16-8.202,10.465c-2.786,2.969-5.906,5.781-9.364,8.382
		c-1.558,1.196-3.179,2.36-4.863,3.462c-1.41,0.918-2.878,1.804-4.406,2.691c-1.165,0.645-2.36,1.285-3.582,1.898
		c-5.906,3.058-12.578,5.691-20.106,7.801c-13.645,3.886-30.078,6.09-49.785,6.09c-39.168,0-65.391-8.75-82.68-21.878
		C139.816,237.914,136.723,235.102,133.937,232.164z" style="fill: rgb(75, 75, 75);"></path>
	<path class="st0" d="M317.754,321.39l-0.094-0.367C317.387,321.332,317.754,321.39,317.754,321.39z" style="fill: rgb(75, 75, 75);"></path>
	<path class="st0" d="M238.07,234.519c0.676,0.305,1.379,0.458,2.051,0.458c1.683,0,3.305-0.918,4.102-2.539
		c1.07-2.11,0.304-4.68-1.653-5.906c-0.125-0.09-0.278-0.183-0.398-0.242l-13.344-6.672c-1.281-0.644-2.781-0.644-4.098,0
		l-13.343,6.672c-0.122,0.059-0.274,0.153-0.394,0.242c-1.962,1.226-2.727,3.797-1.657,5.906c1.133,2.297,3.918,3.214,6.153,2.082
		l11.293-5.66L238.07,234.519z" style="fill: rgb(75, 75, 75);"></path>
	<path class="st0" d="M214.601,197.309c2.969,1.867,8.168,3.703,12.18,3.703c4.039,0,9.238-1.836,12.207-3.703
		c1.133,0,2.816-0.215,4.804-1.164c2.266-1.07,3.856-2.965,4.469-5.321c0.641-2.602,0-5.48-1.777-7.93l-2.027-2.75l-0.918-1.375
		l-0.035,0.082l-0.11-0.148l-2.171,4.711c-3.215,6.98-10.559,9.582-14.442,9.582c-3.887,0-11.23-2.602-14.414-9.582l-1.426-3.094
		l-0.617-1.523l-0.055,0.07l-0.074-0.164l-3.09,4.191c-1.778,2.45-2.418,5.328-1.778,7.93c0.614,2.356,2.172,4.25,4.469,5.321
		C211.785,197.094,213.562,197.309,214.601,197.309z" style="fill: rgb(75, 75, 75);"></path>
	<path class="st0" d="M190.234,82.558c-0.011-0.015-0.023-0.031-0.035-0.046c0.059-0.012,0.11-0.031,0.168-0.043
		c-11.172-16.004-30.722-42.687-44.586-42.687c-1.164,0-2.203,0.214-3.367,0.609c-12.328,4.684-17.074,39.57-10.465,67.782
		c13.777-10.836,31.434-18.887,51.121-23.828C185.468,83.766,187.777,83.035,190.234,82.558z" style="fill: rgb(75, 75, 75);"></path>
	<path class="st0" d="M302.883,96.207c6.73,3.488,12.973,7.465,18.606,11.902c0.027,0.031,0.09,0.062,0.121,0.094
		c0.152-0.676,0.305-1.348,0.43-2.02c2.722-12.515,3.211-26.133,1.867-37.73c-1.656-14.258-6.09-25.519-12.73-28.031
		c-1.133-0.426-2.234-0.64-3.336-0.64c-12.344,0-29.211,21.14-40.645,37.078c-1.355,1.856-2.679,3.688-3.937,5.454
		c0.023,0.004,0.042,0.007,0.066,0.015c-0.032,0.043-0.066,0.094-0.098,0.141C277.636,85.406,291.039,90.054,302.883,96.207z" style="fill: rgb(75, 75, 75);"></path>
	<path class="st0" d="M208.601,160.008c-0.703-9.274-7.218-27.633-26.988-30.875c-1.684-0.274-3.394-0.43-5.078-0.43
		c-20.871,0-33.598,21.086-34.121,22l-4.008,6.703l-0.09,0.183l-3.122,4.5c-1.07,1.527-0.828,3.672,0.61,4.926
		c1.562,1.343,3.918,1.195,5.297-0.367l3.547-4.07c9.61,7.679,16.34,12.453,28.367,14.441c1.316,0.215,2.691,0.34,4.102,0.34
		c11.965,0,25.519-7.894,27.019-8.812l4.863-2.906L208.601,160.008z M150.68,155.664l1.527-3.031
		c3.121-4.191,9.914-11.934,19.219-14.137c-4.836,2.051-8.57,6.488-9.458,12.058c-0.89,5.43,1.18,10.582,4.926,14.09
		c0.754,0.758,1.535,1.496,2.434,2.109C162.535,164.742,157.64,161.215,150.68,155.664z M173.964,142.289
		c2.45-1.07,4.989-0.703,5.661,0.797c0.644,1.5-0.825,3.61-3.274,4.68c-2.481,1.074-4.989,0.707-5.66-0.793
		C170.047,145.473,171.484,143.359,173.964,142.289z M190.356,165.07c-1.246,0.461-2.555,0.89-3.91,1.258
		c3.547-2.347,6.148-6.102,6.89-10.606c0.946-5.75-1.316-11.289-5.48-14.777c10.59,6.242,11.566,19.734,11.566,19.734
		S195.504,163.019,190.356,165.07z" style="fill: rgb(75, 75, 75);"></path>
	<path class="st0" d="M276.781,177.145c1.222,0,2.386-0.062,3.519-0.246c10.891-1.531,17.5-5.477,25.887-11.687
		c0.918-0.676,1.836-1.379,2.812-2.114l3.43,4.129c1.223,1.442,3.336,1.778,4.926,0.738c1.714-1.133,2.203-3.457,1.07-5.172
		l-3.18-4.836l-3.766-6.699c-0.215-0.398-2.817-4.93-7.496-9.855c-5.875-6.149-14.996-12.883-26.836-12.883
		c-1.469,0-2.938,0.122-4.406,0.309c-19.859,2.844-26.778,21.051-27.633,30.293l-0.55,5.63l4.804,3.031
		C250.891,168.726,264.664,177.145,276.781,177.145z M288.426,165.285c-1.325,0.508-2.703,0.938-4.168,1.278
		c5.367-3.195,8.594-9.344,7.668-15.886c-0.794-5.602-4.434-10.129-9.27-12.274c9.27,2.39,15.972,10.313,19,14.566
		c0.465,0.414,1.441,3.062,1.441,3.062C297.547,160.258,293.289,163.274,288.426,165.285z M283.265,146.91
		c-0.703,1.5-3.242,1.805-5.66,0.672c-2.449-1.13-3.855-3.242-3.183-4.742c0.706-1.5,3.246-1.805,5.695-0.672
		C282.531,143.301,283.972,145.41,283.265,146.91z M266.101,140.61c-4.164,3.426-6.488,8.871-5.66,14.562
		c0.516,3.758,2.348,6.961,4.918,9.344c0.52,0.531,1.055,1.042,1.641,1.511c-6.882-2.363-12.774-6.05-12.774-6.05
		S255.512,146.664,266.101,140.61z" style="fill: rgb(75, 75, 75);"></path>
	<path class="st0" d="M188.836,196.973c-0.703-0.309-17.562-7.344-37.61,0.43c-1.558,0.614-2.355,2.386-1.742,3.946
		c0.488,1.222,1.621,1.957,2.874,1.957c0.367,0,0.734-0.058,1.102-0.18c1.227-0.476,2.426-0.843,3.622-1.199
		c0.566-0.168,1.129-0.34,1.695-0.484c2.332-0.602,4.582-0.989,6.742-1.219c0.668-0.07,1.332-0.14,2.004-0.183
		c1.07-0.07,2.129-0.129,3.136-0.129c9.27,0,15.699,2.66,15.79,2.695c1.558,0.672,3.336-0.066,4.008-1.625
		C191.132,199.422,190.398,197.649,188.836,196.973z" style="fill: rgb(75, 75, 75);"></path>
	<path class="st0" d="M183.848,209.09c-0.426,0-8.844,0.336-17.289,5.203c-2.141,1.223-4.286,2.723-6.305,4.59
		c-1.254,1.164-1.313,3.09-0.184,4.312c0.614,0.676,1.438,0.981,2.266,0.981c0.734,0,1.5-0.246,2.082-0.797
		c8.23-7.68,19.492-8.168,19.644-8.168c0.829-0.031,1.531-0.367,2.051-0.918c0.582-0.582,0.918-1.378,0.886-2.266
		C186.968,210.344,185.562,209.027,183.848,209.09z" style="fill: rgb(75, 75, 75);"></path>
	<path class="st0" d="M302.332,197.402c-2.847-1.106-5.602-1.898-8.293-2.45c-16.218-3.457-28.703,1.746-29.316,2.02
		c-1.559,0.676-2.262,2.449-1.59,4.008c0.641,1.558,2.45,2.297,4.008,1.625c0.106-0.055,7.902-3.262,18.813-2.562
		c0.598,0.039,1.191,0.106,1.785,0.168c1.289,0.129,2.586,0.27,3.946,0.523c1.015,0.183,2.058,0.449,3.106,0.715
		c0.71,0.179,1.418,0.382,2.125,0.598c1.062,0.328,2.125,0.652,3.214,1.078c0.367,0.122,0.734,0.18,1.102,0.18
		c1.223,0,2.387-0.734,2.844-1.957C304.688,199.789,303.922,198.016,302.332,197.402z" style="fill: rgb(75, 75, 75);"></path>
	<path class="st0" d="M287.031,214.293c-0.246-0.152-0.461-0.277-0.703-0.398c-8.202-4.5-16.156-4.805-16.617-4.805
		c-1.684-0.062-3.09,1.254-3.152,2.938c-0.028,0.887,0.339,1.684,0.886,2.266c0.554,0.551,1.258,0.887,2.082,0.918
		c0.094,0,7.313,0.273,14.473,4.406c1.778,0.981,3.52,2.234,5.172,3.762c0.582,0.55,1.348,0.797,2.082,0.797
		c0.824,0,1.621-0.305,2.234-0.981c1.16-1.222,1.07-3.148-0.153-4.312C291.316,217.016,289.172,215.516,287.031,214.293z" style="fill: rgb(75, 75, 75);"></path>
	<path class="st0" d="M225.25,206.242v8.05v0.305c0,0.855,0.703,1.531,1.531,1.531c0.855,0,1.527-0.676,1.527-1.531v-0.305v-8.05
		c0-0.825-0.672-1.531-1.527-1.531C225.953,204.711,225.25,205.418,225.25,206.242z" style="fill: rgb(75, 75, 75);"></path>
	<path class="st0" d="M126.047,447.863c-2.543,0-4.594,2.051-4.594,4.59c0,2.539,2.05,4.59,4.594,4.59h28.578l-2.692-9.18H126.047z" style="fill: rgb(75, 75, 75);"></path>
	<path class="st0" d="M327.547,457.043c2.508,0,4.59-2.051,4.59-4.59c0-2.538-2.082-4.59-4.59-4.59H292.02l-2.168-0.012v0.012
		h-0.157c0.09,1.527,0.153,3.058,0.153,4.59c0,1.43-0.062,2.86-0.145,4.29c-0.008,0.042,0,0.098-0.008,0.141h0.004
		c-0.004,0.054-0.004,0.105-0.004,0.16H327.547z" style="fill: rgb(75, 75, 75);"></path>
	<path class="st0" d="M223.875,309.61l0.762-0.762l5.141-5.172c4.012-4.012,0.766-11.047-4.863-10.282
		c-0.062,0.027-0.125,0.027-0.184,0.027c-5.66,0.86-10.254,5.481-11.109,11.11c-0.031,0.062-0.031,0.152-0.031,0.215
		c-0.215,1.406,0.094,2.691,0.734,3.703C216.16,311.539,220.875,312.61,223.875,309.61z" style="fill: rgb(75, 75, 75);"></path>
</g>
</svg>
